<svg width="96" height="200" viewBox="0 0 96 200" fill="none" xmlns="http://www.w3.org/2000/svg">
<rect width="100" height="100" transform="matrix(1 0 0 -1 -4 100)" fill="#2C6269"/>
<path fill-rule="evenodd" clip-rule="evenodd" d="M-4 200C-59.2285 200 -104 155.228 -104 100C-104 44.7715 -59.2285 0 -4 0C51.2285 0 96 44.7715 96 100C96 155.228 51.2285 200 -4 200ZM-4 133C-22.2254 133 -37 118.225 -37 100C-37 81.7746 -22.2254 67 -4 67C14.2254 67 29 81.7746 29 100C29 118.225 14.2254 133 -4 133Z" fill="#012F34"/>
<path fill-rule="evenodd" clip-rule="evenodd" d="M-4 56H96V60H-4V56ZM-4 64H96V68H-4V64ZM96 72H-4V76H96V72ZM-4 80H96V84H-4V80ZM96 88H-4V92H96V88ZM-4 96H96V100H-4V96Z" fill="#79C8C7"/>
<path fill-rule="evenodd" clip-rule="evenodd" d="M96 100H92V104H96V100ZM85 100H89V104H85V100ZM85 108H89V112H85V108ZM89 116H85V120H89V116ZM85 124H89V128H85V124ZM89 132H85V136H89V132ZM85 140H89V144H85V140ZM82 100H78V104H82V100ZM82 108H78V112H82V108ZM78 116H82V120H78V116ZM82 124H78V128H82V124ZM78 132H82V136H78V132ZM82 140H78V144H82V140ZM96 108H92V112H96V108ZM75 100H71V104H75V100ZM75 108H71V112H75V108ZM71 116H75V120H71V116ZM75 124H71V128H75V124ZM71 132H75V136H71V132ZM75 140H71V144H75V140ZM96 116H92V120H96V116ZM68 100H64V104H68V100ZM68 108H64V112H68V108ZM64 116H68V120H64V116ZM68 124H64V128H68V124ZM64 132H68V136H64V132ZM68 140H64V144H68V140ZM96 124H92V128H96V124ZM61 100H57V104H61V100ZM61 108H57V112H61V108ZM57 116H61V120H57V116ZM61 124H57V128H61V124ZM57 132H61V136H57V132ZM61 140H57V144H61V140ZM96 132H92V136H96V132ZM54 100H50V104H54V100ZM54 108H50V112H54V108ZM50 116H54V120H50V116ZM54 124H50V128H54V124ZM50 132H54V136H50V132ZM54 140H50V144H54V140ZM96 140H92V144H96V140ZM47 100H43V104H47V100ZM47 108H43V112H47V108ZM43 116H47V120H43V116ZM47 124H43V128H47V124ZM43 132H47V136H43V132ZM47 140H43V144H47V140Z" fill="#F67E7E"/>
</svg>
